<svg width="32" height="32" viewBox="0 0 32 32" fill="none" xmlns="http://www.w3.org/2000/svg">
<path fill-rule="evenodd" clip-rule="evenodd" d="M21.2918 1.29183C21.3847 1.19871 21.4951 1.12482 21.6165 1.07441C21.738 1.024 21.8683 0.998047 21.9998 0.998047C22.1313 0.998047 22.2616 1.024 22.3831 1.07441C22.5046 1.12482 22.6149 1.19871 22.7078 1.29183L30.7078 9.29183C30.8009 9.38473 30.8748 9.49508 30.9252 9.61657C30.9757 9.73806 31.0016 9.8683 31.0016 9.99983C31.0016 10.1314 30.9757 10.2616 30.9252 10.3831C30.8748 10.5046 30.8009 10.6149 30.7078 10.7078L26.9038 14.5118L25.2458 21.1378C25.1197 21.6424 24.8647 22.1055 24.5056 22.4817C24.1466 22.8579 23.6959 23.1343 23.1978 23.2838L2.50781 29.4918L8.71581 8.79983C8.86545 8.30235 9.1417 7.85226 9.51753 7.49361C9.89336 7.13496 10.3559 6.88005 10.8598 6.75383L17.4858 5.09783L21.2918 1.29183ZM17.6918 7.10783L11.3458 8.69383C11.1774 8.73588 11.0228 8.82106 10.8972 8.94099C10.7717 9.06092 10.6795 9.21148 10.6298 9.37783L5.48981 26.5078L22.6238 21.3678C22.7892 21.3177 22.9388 21.2256 23.0579 21.1005C23.1771 20.9753 23.2618 20.8215 23.3038 20.6538L24.8918 14.3058L17.6918 7.10583V7.10783Z" fill="black"/>
<path fill-rule="evenodd" clip-rule="evenodd" d="M5.6637 26.456L15.9997 18C16.3953 18 16.7819 17.8827 17.1108 17.6629C17.4397 17.4432 17.6961 17.1308 17.8475 16.7654C17.9988 16.3999 18.0384 15.9978 17.9613 15.6098C17.8841 15.2219 17.6936 14.8655 17.4139 14.5858C17.1342 14.3061 16.7778 14.1156 16.3899 14.0384C16.0019 13.9613 15.5998 14.0009 15.2343 14.1522C14.8689 14.3036 14.5565 14.56 14.3368 14.8889C14.117 15.2178 13.9997 15.6044 13.9997 16L5.5437 26.336L5.4917 26.508L5.6637 26.456Z" fill="black"/>
</svg>
