<svg width="272" height="42" viewBox="0 0 272 42" fill="none" xmlns="http://www.w3.org/2000/svg">
<path d="M26.5762 21.0234C28.0801 23.2695 28.832 25.8672 28.832 28.8164C28.832 32.4492 27.6895 35.5547 25.4043 38.1328C23.1191 40.7109 20.3555 42 17.1133 42H1V31.7461H15.6484C16.4492 31.7461 17.1328 31.4629 17.6992 30.8965C18.2852 30.3105 18.5781 29.6172 18.5781 28.8164C18.5781 28.0156 18.2852 27.332 17.6992 26.7656C17.1328 26.1797 16.4492 25.8867 15.6484 25.8867H0.970703L1 15.6328H16.3809C16.9863 15.6328 17.5039 15.418 17.9336 14.9883C18.3633 14.5586 18.5781 14.041 18.5781 13.4355C18.5781 12.8301 18.3633 12.3125 17.9336 11.8828C17.5039 11.4531 16.9863 11.2383 16.3809 11.2383H1V0.984375H17.8457C20.873 0.984375 23.4609 2.20508 25.6094 4.64648C27.7578 7.06836 28.832 9.99805 28.832 13.4355C28.832 16.3066 28.0801 18.8359 26.5762 21.0234ZM50.8633 0.984375C56.5273 0.984375 61.3613 2.98633 65.3652 6.99023C69.3691 10.9941 71.3711 15.8281 71.3711 21.4922C71.3711 27.1562 69.3691 31.9902 65.3652 35.9941C61.3613 39.998 56.5273 42 50.8633 42C45.1992 42 40.3652 39.998 36.3613 35.9941C32.3574 31.9902 30.3555 27.1562 30.3555 21.4922C30.3555 15.8281 32.3574 10.9941 36.3613 6.99023C40.3652 2.98633 45.1992 0.984375 50.8633 0.984375ZM50.8633 31.7461C53.6953 31.7461 56.1074 30.75 58.0996 28.7578C60.1113 26.7461 61.1172 24.3242 61.1172 21.4922C61.1172 18.6602 60.1113 16.248 58.0996 14.2559C56.1074 12.2441 53.6953 11.2383 50.8633 11.2383C48.0312 11.2383 45.6094 12.2441 43.5977 14.2559C41.6055 16.248 40.6094 18.6602 40.6094 21.4922C40.6094 24.3242 41.6055 26.7461 43.5977 28.7578C45.6094 30.75 48.0312 31.7461 50.8633 31.7461ZM93.168 0.984375C98.832 0.984375 103.666 2.98633 107.67 6.99023C111.674 10.9941 113.676 15.8281 113.676 21.4922C113.676 27.1562 111.674 31.9902 107.67 35.9941C103.666 39.998 98.832 42 93.168 42C87.5039 42 82.6699 39.998 78.666 35.9941C74.6621 31.9902 72.6602 27.1562 72.6602 21.4922C72.6602 15.8281 74.6621 10.9941 78.666 6.99023C82.6699 2.98633 87.5039 0.984375 93.168 0.984375ZM93.168 31.7461C96 31.7461 98.4121 30.75 100.404 28.7578C102.416 26.7461 103.422 24.3242 103.422 21.4922C103.422 18.6602 102.416 16.248 100.404 14.2559C98.4121 12.2441 96 11.2383 93.168 11.2383C90.3359 11.2383 87.9141 12.2441 85.9023 14.2559C83.9102 16.248 82.9141 18.6602 82.9141 21.4922C82.9141 24.3242 83.9102 26.7461 85.9023 28.7578C87.9141 30.75 90.3359 31.7461 93.168 31.7461ZM125.219 21.4922L144.262 42H132.543L114.965 25.1543V17.8301L132.543 0.984375H144.262L125.219 21.4922ZM160.258 27.3516H145.609L145.58 17.0977H160.258C161.059 17.0977 161.742 16.8145 162.309 16.248C162.895 15.6621 163.188 14.9688 163.188 14.168C163.188 13.3672 162.895 12.6836 162.309 12.1172C161.742 11.5312 161.059 11.2383 160.258 11.2383H145.609V0.984375H161.723C164.965 0.984375 167.729 2.27344 170.014 4.85156C172.299 7.42969 173.441 10.5352 173.441 14.168C173.441 17.2148 172.631 19.8906 171.01 22.1953C172.65 24.5195 173.471 27.2148 173.471 30.2812L173.441 42H163.188V30.2812C163.188 29.4805 162.895 28.7969 162.309 28.2305C161.742 27.6445 161.059 27.3516 160.258 27.3516ZM195.355 0.984375C201.02 0.984375 205.854 2.98633 209.857 6.99023C213.861 10.9941 215.863 15.8281 215.863 21.4922C215.863 27.1562 213.861 31.9902 209.857 35.9941C205.854 39.998 201.02 42 195.355 42C189.691 42 184.857 39.998 180.854 35.9941C176.85 31.9902 174.848 27.1562 174.848 21.4922C174.848 15.8281 176.85 10.9941 180.854 6.99023C184.857 2.98633 189.691 0.984375 195.355 0.984375ZM195.355 31.7461C198.188 31.7461 200.6 30.75 202.592 28.7578C204.604 26.7461 205.609 24.3242 205.609 21.4922C205.609 18.6602 204.604 16.248 202.592 14.2559C200.6 12.2441 198.188 11.2383 195.355 11.2383C192.523 11.2383 190.102 12.2441 188.09 14.2559C186.098 16.248 185.102 18.6602 185.102 21.4922C185.102 24.3242 186.098 26.7461 188.09 28.7578C190.102 30.75 192.523 31.7461 195.355 31.7461ZM216.332 0.984375H226.586V3.91406C226.586 8.01562 228.441 11.8242 232.152 15.3398L239.242 22.0488C241.488 24.3145 242.611 27.0586 242.611 30.2812C242.611 33.5234 241.469 36.2871 239.184 38.5723C236.898 40.8574 234.135 42 230.893 42H214.867V31.7461H230.893C231.303 31.7461 231.645 31.6094 231.918 31.3359C232.211 31.043 232.357 30.6914 232.357 30.2812C232.357 29.8906 232.23 29.5586 231.977 29.2852L226.586 24.1289C219.75 17.8789 216.332 11.1406 216.332 3.91406V0.984375ZM245.395 0.984375H255.648V3.91406C255.648 8.01562 257.504 11.8242 261.215 15.3398L268.305 22.0488C270.551 24.3145 271.674 27.0586 271.674 30.2812C271.674 33.5234 270.531 36.2871 268.246 38.5723C265.961 40.8574 263.197 42 259.955 42H243.93V31.7461H259.955C260.365 31.7461 260.707 31.6094 260.98 31.3359C261.273 31.043 261.42 30.6914 261.42 30.2812C261.42 29.8906 261.293 29.5586 261.039 29.2852L255.648 24.1289C248.812 17.8789 245.395 11.1406 245.395 3.91406V0.984375Z" fill="black"/>
</svg>
