<svg width="35" height="36" viewBox="0 0 35 36" fill="none" xmlns="http://www.w3.org/2000/svg">
<path fill-rule="evenodd" clip-rule="evenodd" d="M26.8828 24.1554C28.8373 21.6223 30 18.4469 30 15C30 6.71573 23.2843 0 15 0C6.7157 0 0 6.71573 0 15C0 23.2843 6.7157 30 15 30C18.1787 30 21.1266 29.0112 23.5526 27.3245L30.536 35.4956C30.8948 35.9154 31.526 35.9649 31.9458 35.6061L33.9152 33.923C34.3351 33.5642 34.3845 32.933 34.0258 32.5131L26.8828 24.1554ZM15 25.6524C9.11682 25.6524 4.34766 20.8832 4.34766 15C4.34766 9.11685 9.11682 4.34761 15 4.34761C20.8832 4.34761 25.6523 9.11685 25.6523 15C25.6523 20.8832 20.8832 25.6524 15 25.6524Z" fill="white"/>
</svg>
