<svg width="34" height="32" viewBox="0 0 34 32" fill="none" xmlns="http://www.w3.org/2000/svg">
<path d="M25.8848 31.6184C25.4478 31.618 25.0209 31.4872 24.6587 31.2427L17.2825 26.2988C17.2461 26.2737 17.203 26.2603 17.1589 26.2603C17.1147 26.2603 17.0716 26.2737 17.0353 26.2988L9.65902 31.2427C9.28861 31.49 8.85174 31.6188 8.40641 31.612C7.96108 31.6051 7.52836 31.463 7.16572 31.2044C6.80308 30.9459 6.52768 30.5831 6.37608 30.1643C6.22448 29.7455 6.20386 29.2905 6.31696 28.8597L8.73946 20.3167C8.75091 20.2738 8.74952 20.2284 8.73546 20.1862C8.7214 20.1441 8.69529 20.1069 8.66035 20.0794L1.67961 14.5917C1.31212 14.318 1.03953 13.9361 0.900048 13.4995C0.760568 13.063 0.761199 12.5938 0.901853 12.1577C1.04251 11.7215 1.31613 11.3404 1.68435 11.0676C2.05258 10.7948 2.49694 10.6441 2.95513 10.6366L11.8541 10.3005C11.8978 10.2974 11.9398 10.2818 11.9749 10.2555C12.01 10.2292 12.0367 10.1933 12.0518 10.1521L15.117 1.81678C15.2715 1.39421 15.5522 1.02933 15.9209 0.771539C16.2897 0.513745 16.7287 0.375488 17.1786 0.375488C17.6286 0.375488 18.0676 0.513745 18.4364 0.771539C18.8051 1.02933 19.0857 1.39421 19.2402 1.81678L22.3054 10.1521C22.3206 10.1933 22.3473 10.2292 22.3824 10.2555C22.4175 10.2818 22.4594 10.2974 22.5032 10.3005L31.4021 10.6366C31.8603 10.6441 32.3047 10.7948 32.6729 11.0676C33.0411 11.3404 33.3148 11.7215 33.4554 12.1577C33.5961 12.5938 33.5967 13.063 33.4572 13.4995C33.3177 13.9361 33.0452 14.318 32.6777 14.5917L25.6969 20.0794C25.6609 20.106 25.634 20.1431 25.6199 20.1856C25.6057 20.228 25.605 20.2738 25.6178 20.3167L28.0403 28.8597C28.1253 29.1874 28.1338 29.5303 28.065 29.8617C27.9962 30.1932 27.8519 30.5044 27.6435 30.7711C27.4351 31.0379 27.168 31.2531 26.863 31.4C26.558 31.5469 26.2233 31.6217 25.8848 31.6184ZM17.1638 24.2817C17.6017 24.2951 18.0254 24.4398 18.38 24.697L25.7563 29.6409C25.7936 29.6693 25.8392 29.6848 25.8862 29.6852C25.9331 29.6856 25.9789 29.6707 26.0167 29.6429C26.0546 29.6151 26.0824 29.5758 26.096 29.5309C26.1097 29.486 26.1084 29.4378 26.0924 29.3937L23.6699 20.8507C23.5507 20.4316 23.5595 19.9864 23.6952 19.5724C23.8309 19.1584 24.0872 18.7943 24.4313 18.5271L31.412 13.0394C31.4501 13.0126 31.4786 12.9744 31.4933 12.9302C31.5081 12.8861 31.5083 12.8384 31.4939 12.7941C31.4795 12.7499 31.4513 12.7114 31.4134 12.6843C31.3756 12.6573 31.33 12.6431 31.2835 12.6438L22.3845 12.3077C21.9488 12.2907 21.528 12.1443 21.1758 11.8872C20.8236 11.6301 20.5559 11.2739 20.407 10.8641L17.3418 2.52869C17.328 2.48444 17.3004 2.44575 17.263 2.41828C17.2257 2.39082 17.1805 2.376 17.1341 2.376C17.0878 2.376 17.0426 2.39082 17.0053 2.41828C16.9679 2.44575 16.9403 2.48444 16.9265 2.52869L13.891 10.8542C13.742 11.264 13.4744 11.6202 13.1222 11.8773C12.77 12.1344 12.3492 12.2808 11.9134 12.2978L3.01446 12.634C2.96793 12.6332 2.92238 12.6474 2.88452 12.6744C2.84665 12.7015 2.81845 12.74 2.80407 12.7842C2.78968 12.8285 2.78987 12.8762 2.80461 12.9203C2.81934 12.9645 2.84784 13.0027 2.88592 13.0295L9.87655 18.5271C10.2196 18.7952 10.4751 19.1593 10.6107 19.573C10.7463 19.9868 10.7558 20.4315 10.6379 20.8507L8.22529 29.3937C8.2109 29.4365 8.21083 29.4828 8.2251 29.5256C8.23937 29.5684 8.26721 29.6054 8.3044 29.631C8.34022 29.6616 8.3858 29.6785 8.43294 29.6785C8.48007 29.6785 8.52566 29.6616 8.56148 29.631L15.9377 24.6871C16.2982 24.448 16.7213 24.3207 17.1539 24.3213L17.1638 24.2817Z" fill="#F5794D"/>
</svg>
